# xmcd CD database file
#
# Track frame offsets:
#	150
#	21075
#	36587
#	50990
#	75365
#	89870
#	108845
#	120010
#	144220
#	159350
#	172757
#
# Disc length: 2563 seconds
#
# Revision: 0
# Processed by: cddbd v1.5.1PL0 Copyright (c) Steve Scherf et al.
# Submitted via: CDex 1.51
#
DISCID=7f0a010b
DTITLE=ブロンソンズ - スーパーマグナム＋２
DYEAR=2003
DGENRE=JPop
TTITLE0=マンダム 〜男の世界〜
TTITLE1=大脱走’９５
TTITLE2=マンダム 〜男の世界〜 （ウッドストック・モーニング編） with Rolly
TTITLE3=大脱走（ブロンソン大陸Mix） with スチャダラパー
TTITLE4=ロッキーのテーマ（完コピVERSION） with 東京スカパラダイスオーケストラ
TTITLE5=マンダム 〜男の世界〜 （Free As The Byrds編） with 真心ブラザーズ
TTITLE6=デス・ウイッシュ 〜ブロンソンズのテーマ〜 with 桜井秀俊 と パイオニア・コンポ
TTITLE7=エマニエル夫人のテーマ（Real Slave Mix） with Asa-Chang featuring ヒゲオヤジーズ合唱団
TTITLE8=ラヴ・ウイッシュ
TTITLE9=ロッキーのテーマ（Karaoke） 東京スカパラダイスオーケストラ without ブロンソンズ
TTITLE10=エマニエル夫人のテーマ（A Cappella） featuring ヒゲオヤジーズ合唱団
EXTD=YEAR: 2003
EXTT0=
EXTT1=
EXTT2=
EXTT3=
EXTT4=
EXTT5=
EXTT6=
EXTT7=
EXTT8=
EXTT9=
EXTT10=
PLAYORDER=
